%TF.GenerationSoftware,KiCad,Pcbnew,8.0.2*%
%TF.CreationDate,2025-01-26T20:54:38+01:00*%
%TF.ProjectId,MK23xxCharGenReadout,4d4b3233-7878-4436-9861-7247656e5265,rev?*%
%TF.SameCoordinates,Original*%
%TF.FileFunction,Soldermask,Top*%
%TF.FilePolarity,Negative*%
%FSLAX46Y46*%
G04 Gerber Fmt 4.6, Leading zero omitted, Abs format (unit mm)*
G04 Created by KiCad (PCBNEW 8.0.2) date 2025-01-26 20:54:38*
%MOMM*%
%LPD*%
G01*
G04 APERTURE LIST*
%ADD10C,3.200000*%
%ADD11R,1.905000X2.000000*%
%ADD12O,1.905000X2.000000*%
%ADD13R,1.600000X1.600000*%
%ADD14O,1.600000X1.600000*%
%ADD15C,1.600000*%
%ADD16R,1.300000X1.300000*%
%ADD17C,1.300000*%
%ADD18R,1.700000X1.700000*%
%ADD19O,1.700000X1.700000*%
%ADD20R,2.000000X4.500000*%
%ADD21O,2.000000X4.000000*%
%ADD22O,4.000000X2.000000*%
%ADD23R,1.800000X1.800000*%
%ADD24C,1.800000*%
%ADD25R,2.200000X2.200000*%
%ADD26O,2.200000X2.200000*%
G04 APERTURE END LIST*
D10*
%TO.C,H4*%
X240000000Y-141000000D03*
%TD*%
%TO.C,H3*%
X111000000Y-41000000D03*
%TD*%
%TO.C,H2*%
X111000000Y-141000000D03*
%TD*%
%TO.C,H1*%
X241000000Y-41000000D03*
%TD*%
D11*
%TO.C,U9*%
X147320000Y-123952000D03*
D12*
X149860000Y-123952000D03*
X152400000Y-123952000D03*
%TD*%
D13*
%TO.C,U8*%
X166380000Y-101595000D03*
D14*
X166380000Y-104135000D03*
X166380000Y-106675000D03*
X166380000Y-109215000D03*
X166380000Y-111755000D03*
X166380000Y-114295000D03*
X166380000Y-116835000D03*
X174000000Y-116835000D03*
X174000000Y-114295000D03*
X174000000Y-111755000D03*
X174000000Y-109215000D03*
X174000000Y-106675000D03*
X174000000Y-104135000D03*
X174000000Y-101595000D03*
%TD*%
D13*
%TO.C,U7*%
X166380000Y-77465000D03*
D14*
X166380000Y-80005000D03*
X166380000Y-82545000D03*
X166380000Y-85085000D03*
X166380000Y-87625000D03*
X166380000Y-90165000D03*
X166380000Y-92705000D03*
X174000000Y-92705000D03*
X174000000Y-90165000D03*
X174000000Y-87625000D03*
X174000000Y-85085000D03*
X174000000Y-82545000D03*
X174000000Y-80005000D03*
X174000000Y-77465000D03*
%TD*%
D11*
%TO.C,U6*%
X147320000Y-130048000D03*
D12*
X149860000Y-130048000D03*
X152400000Y-130048000D03*
%TD*%
D13*
%TO.C,U5*%
X166380000Y-50800000D03*
D14*
X166380000Y-53340000D03*
X166380000Y-55880000D03*
X166380000Y-58420000D03*
X166380000Y-60960000D03*
X166380000Y-63500000D03*
X166380000Y-66040000D03*
X166380000Y-68580000D03*
X174000000Y-68580000D03*
X174000000Y-66040000D03*
X174000000Y-63500000D03*
X174000000Y-60960000D03*
X174000000Y-58420000D03*
X174000000Y-55880000D03*
X174000000Y-53340000D03*
X174000000Y-50800000D03*
%TD*%
D13*
%TO.C,U4*%
X131572000Y-53335000D03*
D14*
X131572000Y-55875000D03*
X131572000Y-58415000D03*
X131572000Y-60955000D03*
X131572000Y-63495000D03*
X131572000Y-66035000D03*
X131572000Y-68575000D03*
X131572000Y-71115000D03*
X131572000Y-73655000D03*
X131572000Y-76195000D03*
X131572000Y-78735000D03*
X131572000Y-81275000D03*
X146812000Y-81275000D03*
X146812000Y-78735000D03*
X146812000Y-76195000D03*
X146812000Y-73655000D03*
X146812000Y-71115000D03*
X146812000Y-68575000D03*
X146812000Y-66035000D03*
X146812000Y-63495000D03*
X146812000Y-60955000D03*
X146812000Y-58415000D03*
X146812000Y-55875000D03*
X146812000Y-53335000D03*
%TD*%
D13*
%TO.C,U2*%
X109728000Y-116840000D03*
D14*
X112268000Y-116840000D03*
X114808000Y-116840000D03*
X117348000Y-116840000D03*
X119888000Y-116840000D03*
X122428000Y-116840000D03*
X124968000Y-116840000D03*
X127508000Y-116840000D03*
X130048000Y-116840000D03*
X132588000Y-116840000D03*
X135128000Y-116840000D03*
X137668000Y-116840000D03*
X140208000Y-116840000D03*
X142748000Y-116840000D03*
X145288000Y-116840000D03*
X147828000Y-116840000D03*
X150368000Y-116840000D03*
X152908000Y-116840000D03*
X155448000Y-116840000D03*
X157988000Y-116840000D03*
X157988000Y-101600000D03*
X155448000Y-101600000D03*
X152908000Y-101600000D03*
X150368000Y-101600000D03*
X147828000Y-101600000D03*
X145288000Y-101600000D03*
X142748000Y-101600000D03*
X140208000Y-101600000D03*
X137668000Y-101600000D03*
X135128000Y-101600000D03*
X132588000Y-101600000D03*
X130048000Y-101600000D03*
X127508000Y-101600000D03*
X124968000Y-101600000D03*
X122428000Y-101600000D03*
X119888000Y-101600000D03*
X117348000Y-101600000D03*
X114808000Y-101600000D03*
X112268000Y-101600000D03*
X109728000Y-101600000D03*
%TD*%
D15*
%TO.C,R54*%
X238760000Y-48260000D03*
D14*
X231140000Y-48260000D03*
%TD*%
D15*
%TO.C,R53*%
X241300000Y-133350000D03*
D14*
X233680000Y-133350000D03*
%TD*%
D15*
%TO.C,R52*%
X241300000Y-123190000D03*
D14*
X233680000Y-123190000D03*
%TD*%
D15*
%TO.C,R51*%
X241300000Y-113030000D03*
D14*
X233680000Y-113030000D03*
%TD*%
D15*
%TO.C,R50*%
X241300000Y-102870000D03*
D14*
X233680000Y-102870000D03*
%TD*%
D15*
%TO.C,R49*%
X241300000Y-92710000D03*
D14*
X233680000Y-92710000D03*
%TD*%
D15*
%TO.C,R48*%
X241300000Y-82550000D03*
D14*
X233680000Y-82550000D03*
%TD*%
D15*
%TO.C,R47*%
X241300000Y-72390000D03*
D14*
X233680000Y-72390000D03*
%TD*%
D15*
%TO.C,R46*%
X228600000Y-48260000D03*
D14*
X220980000Y-48260000D03*
%TD*%
D15*
%TO.C,R45*%
X231140000Y-133350000D03*
D14*
X223520000Y-133350000D03*
%TD*%
D15*
%TO.C,R44*%
X231140000Y-123190000D03*
D14*
X223520000Y-123190000D03*
%TD*%
D15*
%TO.C,R43*%
X231140000Y-113030000D03*
D14*
X223520000Y-113030000D03*
%TD*%
D15*
%TO.C,R42*%
X231140000Y-102870000D03*
D14*
X223520000Y-102870000D03*
%TD*%
D15*
%TO.C,R41*%
X231140000Y-92710000D03*
D14*
X223520000Y-92710000D03*
%TD*%
D15*
%TO.C,R40*%
X231140000Y-82550000D03*
D14*
X223520000Y-82550000D03*
%TD*%
D15*
%TO.C,R39*%
X231140000Y-72390000D03*
D14*
X223520000Y-72390000D03*
%TD*%
D15*
%TO.C,R38*%
X218440000Y-48260000D03*
D14*
X210820000Y-48260000D03*
%TD*%
D15*
%TO.C,R37*%
X220980000Y-133350000D03*
D14*
X213360000Y-133350000D03*
%TD*%
D15*
%TO.C,R36*%
X220980000Y-123190000D03*
D14*
X213360000Y-123190000D03*
%TD*%
D15*
%TO.C,R35*%
X220980000Y-113030000D03*
D14*
X213360000Y-113030000D03*
%TD*%
%TO.C,R34*%
X213360000Y-102870000D03*
D15*
X220980000Y-102870000D03*
%TD*%
%TO.C,R33*%
X220980000Y-92710000D03*
D14*
X213360000Y-92710000D03*
%TD*%
D15*
%TO.C,R32*%
X220980000Y-82550000D03*
D14*
X213360000Y-82550000D03*
%TD*%
D15*
%TO.C,R31*%
X220980000Y-72390000D03*
D14*
X213360000Y-72390000D03*
%TD*%
D15*
%TO.C,R30*%
X208280000Y-48260000D03*
D14*
X200660000Y-48260000D03*
%TD*%
D15*
%TO.C,R29*%
X210820000Y-133350000D03*
D14*
X203200000Y-133350000D03*
%TD*%
D15*
%TO.C,R28*%
X210820000Y-123190000D03*
D14*
X203200000Y-123190000D03*
%TD*%
D15*
%TO.C,R27*%
X210820000Y-113030000D03*
D14*
X203200000Y-113030000D03*
%TD*%
D15*
%TO.C,R26*%
X210820000Y-102870000D03*
D14*
X203200000Y-102870000D03*
%TD*%
D15*
%TO.C,R25*%
X210820000Y-92710000D03*
D14*
X203200000Y-92710000D03*
%TD*%
D15*
%TO.C,R24*%
X210820000Y-82550000D03*
D14*
X203200000Y-82550000D03*
%TD*%
D15*
%TO.C,R23*%
X210820000Y-72390000D03*
D14*
X203200000Y-72390000D03*
%TD*%
D15*
%TO.C,R22*%
X198120000Y-48260000D03*
D14*
X190500000Y-48260000D03*
%TD*%
D15*
%TO.C,R21*%
X200660000Y-133350000D03*
D14*
X193040000Y-133350000D03*
%TD*%
D15*
%TO.C,R20*%
X200660000Y-123190000D03*
D14*
X193040000Y-123190000D03*
%TD*%
D15*
%TO.C,R19*%
X200660000Y-113030000D03*
D14*
X193040000Y-113030000D03*
%TD*%
D15*
%TO.C,R18*%
X200660000Y-102870000D03*
D14*
X193040000Y-102870000D03*
%TD*%
D15*
%TO.C,R17*%
X200660000Y-92710000D03*
D14*
X193040000Y-92710000D03*
%TD*%
D15*
%TO.C,R16*%
X200660000Y-82550000D03*
D14*
X193040000Y-82550000D03*
%TD*%
D15*
%TO.C,R15*%
X200660000Y-72390000D03*
D14*
X193040000Y-72390000D03*
%TD*%
D15*
%TO.C,R14*%
X187960000Y-48260000D03*
D14*
X180340000Y-48260000D03*
%TD*%
D15*
%TO.C,R13*%
X190500000Y-133350000D03*
D14*
X182880000Y-133350000D03*
%TD*%
D15*
%TO.C,R12*%
X190500000Y-123190000D03*
D14*
X182880000Y-123190000D03*
%TD*%
D15*
%TO.C,R11*%
X190500000Y-113030000D03*
D14*
X182880000Y-113030000D03*
%TD*%
D15*
%TO.C,R10*%
X190500000Y-102870000D03*
D14*
X182880000Y-102870000D03*
%TD*%
D15*
%TO.C,R9*%
X190500000Y-92710000D03*
D14*
X182880000Y-92710000D03*
%TD*%
D15*
%TO.C,R8*%
X190500000Y-82550000D03*
D14*
X182880000Y-82550000D03*
%TD*%
D15*
%TO.C,R7*%
X190500000Y-72390000D03*
D14*
X182880000Y-72390000D03*
%TD*%
D15*
%TO.C,R6*%
X229870000Y-58420000D03*
D14*
X237490000Y-58420000D03*
%TD*%
D15*
%TO.C,R5*%
X219710000Y-58420000D03*
D14*
X227330000Y-58420000D03*
%TD*%
D15*
%TO.C,R4*%
X209550000Y-58420000D03*
D14*
X217170000Y-58420000D03*
%TD*%
D15*
%TO.C,R3*%
X199390000Y-58420000D03*
D14*
X207010000Y-58420000D03*
%TD*%
D15*
%TO.C,R2*%
X189230000Y-58420000D03*
D14*
X196850000Y-58420000D03*
%TD*%
D15*
%TO.C,R1*%
X179070000Y-58420000D03*
D14*
X186690000Y-58420000D03*
%TD*%
D16*
%TO.C,Q6*%
X238760000Y-55245000D03*
D17*
X237490000Y-53975000D03*
X238760000Y-52705000D03*
%TD*%
D16*
%TO.C,Q5*%
X228600000Y-55245000D03*
D17*
X227330000Y-53975000D03*
X228600000Y-52705000D03*
%TD*%
D16*
%TO.C,Q4*%
X218440000Y-55245000D03*
D17*
X217170000Y-53975000D03*
X218440000Y-52705000D03*
%TD*%
D16*
%TO.C,Q3*%
X208280000Y-55245000D03*
D17*
X207010000Y-53975000D03*
X208280000Y-52705000D03*
%TD*%
D16*
%TO.C,Q2*%
X198120000Y-55245000D03*
D17*
X196850000Y-53975000D03*
X198120000Y-52705000D03*
%TD*%
D16*
%TO.C,Q1*%
X187960000Y-55245000D03*
D17*
X186690000Y-53975000D03*
X187960000Y-52705000D03*
%TD*%
D18*
%TO.C,OUT6*%
X157480000Y-81280000D03*
D19*
X160020000Y-81280000D03*
%TD*%
D18*
%TO.C,OUT5*%
X157475000Y-77470000D03*
D19*
X160015000Y-77470000D03*
%TD*%
D18*
%TO.C,OUT4*%
X157475000Y-73660000D03*
D19*
X160015000Y-73660000D03*
%TD*%
D18*
%TO.C,OUT3*%
X157480000Y-69850000D03*
D19*
X160020000Y-69850000D03*
%TD*%
D18*
%TO.C,OUT2*%
X157480000Y-66040000D03*
D19*
X160020000Y-66040000D03*
%TD*%
D18*
%TO.C,OUT1*%
X157480000Y-61976000D03*
D19*
X160020000Y-61976000D03*
%TD*%
D18*
%TO.C,OUT0*%
X157480000Y-57912000D03*
D19*
X160020000Y-57912000D03*
%TD*%
D18*
%TO.C,JP1*%
X122555000Y-78105000D03*
D19*
X122555000Y-75565000D03*
X122555000Y-73025000D03*
%TD*%
D20*
%TO.C,J1*%
X122555000Y-125130000D03*
D21*
X116355000Y-125130000D03*
D22*
X119355000Y-129830000D03*
%TD*%
D23*
%TO.C,D45*%
X236220000Y-128270000D03*
D24*
X238760000Y-128270000D03*
%TD*%
D23*
%TO.C,D44*%
X236220000Y-118110000D03*
D24*
X238760000Y-118110000D03*
%TD*%
D23*
%TO.C,D43*%
X236220000Y-107950000D03*
D24*
X238760000Y-107950000D03*
%TD*%
D23*
%TO.C,D42*%
X236220000Y-97790000D03*
D24*
X238760000Y-97790000D03*
%TD*%
D23*
%TO.C,D41*%
X236220000Y-87630000D03*
D24*
X238760000Y-87630000D03*
%TD*%
D23*
%TO.C,D40*%
X236220000Y-77470000D03*
D24*
X238760000Y-77470000D03*
%TD*%
D23*
%TO.C,D39*%
X236220000Y-67310000D03*
D24*
X238760000Y-67310000D03*
%TD*%
D23*
%TO.C,D38*%
X226060000Y-128270000D03*
D24*
X228600000Y-128270000D03*
%TD*%
D23*
%TO.C,D37*%
X226060000Y-118110000D03*
D24*
X228600000Y-118110000D03*
%TD*%
D23*
%TO.C,D36*%
X226060000Y-107950000D03*
D24*
X228600000Y-107950000D03*
%TD*%
D23*
%TO.C,D35*%
X226060000Y-97790000D03*
D24*
X228600000Y-97790000D03*
%TD*%
D23*
%TO.C,D34*%
X226055000Y-87630000D03*
D24*
X228595000Y-87630000D03*
%TD*%
D23*
%TO.C,D33*%
X226060000Y-77470000D03*
D24*
X228600000Y-77470000D03*
%TD*%
D23*
%TO.C,D32*%
X226060000Y-67310000D03*
D24*
X228600000Y-67310000D03*
%TD*%
D23*
%TO.C,D31*%
X215900000Y-128270000D03*
D24*
X218440000Y-128270000D03*
%TD*%
D23*
%TO.C,D30*%
X215900000Y-118110000D03*
D24*
X218440000Y-118110000D03*
%TD*%
D23*
%TO.C,D29*%
X215900000Y-107950000D03*
D24*
X218440000Y-107950000D03*
%TD*%
D23*
%TO.C,D28*%
X215900000Y-97790000D03*
D24*
X218440000Y-97790000D03*
%TD*%
D23*
%TO.C,D27*%
X215900000Y-87630000D03*
D24*
X218440000Y-87630000D03*
%TD*%
D23*
%TO.C,D26*%
X215900000Y-77470000D03*
D24*
X218440000Y-77470000D03*
%TD*%
D23*
%TO.C,D25*%
X215895000Y-67310000D03*
D24*
X218435000Y-67310000D03*
%TD*%
D23*
%TO.C,D24*%
X205740000Y-128270000D03*
D24*
X208280000Y-128270000D03*
%TD*%
D23*
%TO.C,D23*%
X205740000Y-118110000D03*
D24*
X208280000Y-118110000D03*
%TD*%
D23*
%TO.C,D22*%
X205740000Y-107950000D03*
D24*
X208280000Y-107950000D03*
%TD*%
D23*
%TO.C,D21*%
X205740000Y-97790000D03*
D24*
X208280000Y-97790000D03*
%TD*%
D23*
%TO.C,D20*%
X205740000Y-87630000D03*
D24*
X208280000Y-87630000D03*
%TD*%
D23*
%TO.C,D19*%
X205740000Y-77470000D03*
D24*
X208280000Y-77470000D03*
%TD*%
D23*
%TO.C,D18*%
X205740000Y-67310000D03*
D24*
X208280000Y-67310000D03*
%TD*%
%TO.C,D17*%
X198120000Y-128270000D03*
D23*
X195580000Y-128270000D03*
%TD*%
%TO.C,D16*%
X195580000Y-118110000D03*
D24*
X198120000Y-118110000D03*
%TD*%
D23*
%TO.C,D15*%
X195580000Y-107950000D03*
D24*
X198120000Y-107950000D03*
%TD*%
D23*
%TO.C,D14*%
X195580000Y-97790000D03*
D24*
X198120000Y-97790000D03*
%TD*%
D23*
%TO.C,D13*%
X195580000Y-87630000D03*
D24*
X198120000Y-87630000D03*
%TD*%
D23*
%TO.C,D12*%
X195580000Y-77470000D03*
D24*
X198120000Y-77470000D03*
%TD*%
D23*
%TO.C,D11*%
X195580000Y-67310000D03*
D24*
X198120000Y-67310000D03*
%TD*%
D23*
%TO.C,D10*%
X185415000Y-128270000D03*
D24*
X187955000Y-128270000D03*
%TD*%
%TO.C,D9*%
X187960000Y-118110000D03*
D23*
X185420000Y-118110000D03*
%TD*%
%TO.C,D8*%
X185415000Y-107950000D03*
D24*
X187955000Y-107950000D03*
%TD*%
D23*
%TO.C,D7*%
X185415000Y-97790000D03*
D24*
X187955000Y-97790000D03*
%TD*%
%TO.C,D6*%
X187955000Y-87630000D03*
D23*
X185415000Y-87630000D03*
%TD*%
%TO.C,D5*%
X185420000Y-77470000D03*
D24*
X187960000Y-77470000D03*
%TD*%
D23*
%TO.C,D4*%
X185420000Y-67310000D03*
D24*
X187960000Y-67310000D03*
%TD*%
D25*
%TO.C,D3*%
X139065000Y-128905000D03*
D26*
X128905000Y-128905000D03*
%TD*%
D25*
%TO.C,D2*%
X128905000Y-124460000D03*
D26*
X139065000Y-124460000D03*
%TD*%
D25*
%TO.C,D1*%
X139192000Y-120396000D03*
D26*
X129032000Y-120396000D03*
%TD*%
D15*
%TO.C,C9*%
X116332000Y-96520000D03*
X111332000Y-96520000D03*
%TD*%
%TO.C,C8*%
X116125000Y-72390000D03*
X111125000Y-72390000D03*
%TD*%
D13*
%TO.C,C7*%
X137708000Y-92456000D03*
D15*
X140208000Y-92456000D03*
%TD*%
%TO.C,C6*%
X172720000Y-121285000D03*
X167720000Y-121285000D03*
%TD*%
%TO.C,C5*%
X172640000Y-97155000D03*
X167640000Y-97155000D03*
%TD*%
%TO.C,C4*%
X172680000Y-73025000D03*
X167680000Y-73025000D03*
%TD*%
D13*
%TO.C,C3*%
X149900000Y-92456000D03*
D15*
X152400000Y-92456000D03*
%TD*%
D13*
%TO.C,C2*%
X171784000Y-130048000D03*
D15*
X176784000Y-130048000D03*
%TD*%
%TO.C,C1*%
X166173349Y-130048000D03*
D13*
X161173349Y-130048000D03*
%TD*%
D14*
%TO.C,U1*%
X117475000Y-76830000D03*
X117475000Y-79370000D03*
X117475000Y-81910000D03*
X117475000Y-84450000D03*
X117475000Y-86990000D03*
X117475000Y-89530000D03*
X117475000Y-92070000D03*
X109855000Y-92070000D03*
X109855000Y-89530000D03*
X109855000Y-86990000D03*
X109855000Y-84450000D03*
X109855000Y-81910000D03*
X109855000Y-79370000D03*
D13*
X109855000Y-76830000D03*
%TD*%
%TO.C,U3*%
X109855000Y-52705000D03*
D14*
X109855000Y-55245000D03*
X109855000Y-57785000D03*
X109855000Y-60325000D03*
X109855000Y-62865000D03*
X109855000Y-65405000D03*
X109855000Y-67945000D03*
X117475000Y-67945000D03*
X117475000Y-65405000D03*
X117475000Y-62865000D03*
X117475000Y-60325000D03*
X117475000Y-57785000D03*
X117475000Y-55245000D03*
X117475000Y-52705000D03*
%TD*%
M02*
