M48
; DRILL file {KiCad 8.0.8} date 2025-02-09T10:31:24+0100
; FORMAT={-:-/ absolute / inch / decimal}
; #@! TF.CreationDate,2025-02-09T10:31:24+01:00
; #@! TF.GenerationSoftware,Kicad,Pcbnew,8.0.8
; #@! TF.FileFunction,Plated,1,2,PTH
FMAT,2
INCH
; #@! TA.AperFunction,Plated,PTH,ViaDrill
T1C0.0118
; #@! TA.AperFunction,Plated,PTH,ViaDrill
T2C0.0236
; #@! TA.AperFunction,Plated,PTH,ComponentDrill
T3C0.0295
; #@! TA.AperFunction,Plated,PTH,ComponentDrill
T4C0.0315
; #@! TA.AperFunction,Plated,PTH,ComponentDrill
T5C0.0354
; #@! TA.AperFunction,Plated,PTH,ComponentDrill
T6C0.0394
; #@! TA.AperFunction,Plated,PTH,ComponentDrill
T7C0.0433
%
G90
G05
T1
X4.3Y-4.14
X4.3577Y-4.1223
X4.38Y-4.1
X4.4Y-2.12
X4.4234Y-3.12
X4.4234Y-3.32
X4.46Y-2.22
X4.46Y-3.5
X4.4707Y-2.32
X4.52Y-2.18
X4.5266Y-2.68
X4.68Y-4.04
X4.72Y-3.22
X4.7364Y-3.5236
X4.76Y-3.34
X4.76Y-3.94
X4.76Y-4.08
X4.7856Y-3.18
X4.9Y-2.06
X4.96Y-2.52
X4.96Y-3.42
X5.0Y-2.0329
X5.04Y-4.52
X5.06Y-3.2
X5.08Y-2.6
X5.08Y-3.54
X5.0964Y-2.4
X5.12Y-2.0329
X5.26Y-2.0
X5.6Y-2.6
X5.6006Y-2.7
X6.3Y-3.12
X6.38Y-2.44
X6.3855Y-3.24
X6.4Y-2.76
X6.4328Y-2.92
X6.4328Y-3.32
X6.44Y-2.6
X6.46Y-2.28
X6.46Y-3.52
X6.48Y-3.2
X6.48Y-3.42
X7.0Y-4.16
X7.04Y-3.2695
X7.1Y-3.48
X7.14Y-3.64
T2
X4.84Y-3.64
X5.18Y-3.5809
X5.54Y-3.8512
X5.64Y-2.3
X5.64Y-2.4
X5.64Y-2.8
X5.64Y-3.8
X5.7Y-3.64
X5.9Y-3.8
X6.34Y-3.84
X6.4Y-3.78
T3
X7.35Y-2.125
X7.4Y-2.075
X7.4Y-2.175
X7.75Y-2.125
X7.8Y-2.075
X7.8Y-2.175
X8.15Y-2.125
X8.2Y-2.075
X8.2Y-2.175
X8.55Y-2.125
X8.6Y-2.075
X8.6Y-2.175
X8.95Y-2.125
X9.0Y-2.075
X9.0Y-2.175
X9.35Y-2.125
X9.4Y-2.075
X9.4Y-2.175
T4
X4.32Y-4.0
X4.32Y-4.6
X4.325Y-2.075
X4.325Y-2.175
X4.325Y-2.275
X4.325Y-2.375
X4.325Y-2.475
X4.325Y-2.575
X4.325Y-2.675
X4.325Y-3.0248
X4.325Y-3.1248
X4.325Y-3.2248
X4.325Y-3.3248
X4.325Y-3.4248
X4.325Y-3.5248
X4.325Y-3.6248
X4.375Y-2.85
X4.3831Y-3.8
X4.42Y-4.0
X4.42Y-4.6
X4.52Y-4.0
X4.52Y-4.6
X4.5719Y-2.85
X4.58Y-3.8
X4.62Y-4.0
X4.62Y-4.6
X4.625Y-2.075
X4.625Y-2.175
X4.625Y-2.275
X4.625Y-2.375
X4.625Y-2.475
X4.625Y-2.575
X4.625Y-2.675
X4.625Y-3.0248
X4.625Y-3.1248
X4.625Y-3.2248
X4.625Y-3.3248
X4.625Y-3.4248
X4.625Y-3.5248
X4.625Y-3.6248
X4.72Y-4.0
X4.72Y-4.6
X4.82Y-4.0
X4.82Y-4.6
X4.92Y-4.0
X4.92Y-4.6
X5.02Y-4.0
X5.02Y-4.6
X5.12Y-4.0
X5.12Y-4.6
X5.22Y-4.0
X5.22Y-4.6
X5.32Y-4.0
X5.32Y-4.6
X5.42Y-4.0
X5.42Y-4.6
X5.4216Y-3.64
X5.52Y-3.64
X5.52Y-4.0
X5.52Y-4.6
X5.62Y-4.0
X5.62Y-4.6
X5.72Y-4.0
X5.72Y-4.6
X5.82Y-4.0
X5.82Y-4.6
X5.9016Y-3.64
X5.92Y-4.0
X5.92Y-4.6
X6.0Y-3.64
X6.02Y-4.0
X6.02Y-4.6
X6.12Y-4.0
X6.12Y-4.6
X6.22Y-4.0
X6.22Y-4.6
X6.3454Y-5.12
X6.5423Y-5.12
X6.5504Y-2.0
X6.5504Y-2.1
X6.5504Y-2.2
X6.5504Y-2.3
X6.5504Y-2.4
X6.5504Y-2.5
X6.5504Y-2.6
X6.5504Y-2.7
X6.5504Y-3.0498
X6.5504Y-3.1498
X6.5504Y-3.2498
X6.5504Y-3.3498
X6.5504Y-3.4498
X6.5504Y-3.5498
X6.5504Y-3.6498
X6.5504Y-3.9998
X6.5504Y-4.0998
X6.5504Y-4.1998
X6.5504Y-4.2998
X6.5504Y-4.3998
X6.5504Y-4.4998
X6.5504Y-4.5998
X6.6Y-3.825
X6.6016Y-2.875
X6.6031Y-4.775
X6.7631Y-5.12
X6.7969Y-3.825
X6.7984Y-2.875
X6.8Y-4.775
X6.8504Y-2.0
X6.8504Y-2.1
X6.8504Y-2.2
X6.8504Y-2.3
X6.8504Y-2.4
X6.8504Y-2.5
X6.8504Y-2.6
X6.8504Y-2.7
X6.8504Y-3.0498
X6.8504Y-3.1498
X6.8504Y-3.2498
X6.8504Y-3.3498
X6.8504Y-3.4498
X6.8504Y-3.5498
X6.8504Y-3.6498
X6.8504Y-3.9998
X6.8504Y-4.0998
X6.8504Y-4.1998
X6.8504Y-4.2998
X6.8504Y-4.3998
X6.8504Y-4.4998
X6.8504Y-4.5998
X6.96Y-5.12
X7.05Y-2.3
X7.1Y-1.9
X7.2Y-2.85
X7.2Y-3.25
X7.2Y-3.65
X7.2Y-4.05
X7.2Y-4.45
X7.2Y-4.85
X7.2Y-5.25
X7.35Y-2.3
X7.4Y-1.9
X7.45Y-2.3
X7.5Y-1.9
X7.5Y-2.85
X7.5Y-3.25
X7.5Y-3.65
X7.5Y-4.05
X7.5Y-4.45
X7.5Y-4.85
X7.5Y-5.25
X7.6Y-2.85
X7.6Y-3.25
X7.6Y-3.65
X7.6Y-4.05
X7.6Y-4.45
X7.6Y-4.85
X7.6Y-5.25
X7.75Y-2.3
X7.8Y-1.9
X7.85Y-2.3
X7.9Y-1.9
X7.9Y-2.85
X7.9Y-3.25
X7.9Y-3.65
X7.9Y-4.05
X7.9Y-4.45
X7.9Y-4.85
X7.9Y-5.25
X8.0Y-2.85
X8.0Y-3.25
X8.0Y-3.65
X8.0Y-4.05
X8.0Y-4.45
X8.0Y-4.85
X8.0Y-5.25
X8.15Y-2.3
X8.2Y-1.9
X8.25Y-2.3
X8.3Y-1.9
X8.3Y-2.85
X8.3Y-3.25
X8.3Y-3.65
X8.3Y-4.05
X8.3Y-4.45
X8.3Y-4.85
X8.3Y-5.25
X8.4Y-2.85
X8.4Y-3.25
X8.4Y-3.65
X8.4Y-4.05
X8.4Y-4.45
X8.4Y-4.85
X8.4Y-5.25
X8.55Y-2.3
X8.6Y-1.9
X8.65Y-2.3
X8.7Y-1.9
X8.7Y-2.85
X8.7Y-3.25
X8.7Y-3.65
X8.7Y-4.05
X8.7Y-4.45
X8.7Y-4.85
X8.7Y-5.25
X8.8Y-2.85
X8.8Y-3.25
X8.8Y-3.65
X8.8Y-4.05
X8.8Y-4.45
X8.8Y-4.85
X8.8Y-5.25
X8.95Y-2.3
X9.0Y-1.9
X9.05Y-2.3
X9.1Y-1.9
X9.1Y-2.85
X9.1Y-3.25
X9.1Y-3.65
X9.1Y-4.05
X9.1Y-4.45
X9.1Y-4.85
X9.1Y-5.25
X9.2Y-2.85
X9.2Y-3.25
X9.2Y-3.65
X9.2Y-4.05
X9.2Y-4.45
X9.2Y-4.85
X9.2Y-5.25
X9.35Y-2.3
X9.4Y-1.9
X9.5Y-2.85
X9.5Y-3.25
X9.5Y-3.65
X9.5Y-4.05
X9.5Y-4.45
X9.5Y-4.85
X9.5Y-5.25
T5
X7.2998Y-3.45
X7.2998Y-3.85
X7.2998Y-4.25
X7.2998Y-5.05
X7.3Y-2.65
X7.3Y-3.05
X7.3Y-4.65
X7.3998Y-3.45
X7.3998Y-3.85
X7.3998Y-4.25
X7.3998Y-5.05
X7.4Y-2.65
X7.4Y-3.05
X7.4Y-4.65
X7.7Y-2.65
X7.7Y-3.05
X7.7Y-3.45
X7.7Y-3.85
X7.7Y-4.25
X7.7Y-4.65
X7.7Y-5.05
X7.8Y-2.65
X7.8Y-3.05
X7.8Y-3.45
X7.8Y-3.85
X7.8Y-4.25
X7.8Y-4.65
X7.8Y-5.05
X8.1Y-2.65
X8.1Y-3.05
X8.1Y-3.45
X8.1Y-3.85
X8.1Y-4.25
X8.1Y-4.65
X8.1Y-5.05
X8.2Y-2.65
X8.2Y-3.05
X8.2Y-3.45
X8.2Y-3.85
X8.2Y-4.25
X8.2Y-4.65
X8.2Y-5.05
X8.4998Y-2.65
X8.5Y-3.05
X8.5Y-3.45
X8.5Y-3.85
X8.5Y-4.25
X8.5Y-4.65
X8.5Y-5.05
X8.5998Y-2.65
X8.6Y-3.05
X8.6Y-3.45
X8.6Y-3.85
X8.6Y-4.25
X8.6Y-4.65
X8.6Y-5.05
X8.8998Y-3.45
X8.9Y-2.65
X8.9Y-3.05
X8.9Y-3.85
X8.9Y-4.25
X8.9Y-4.65
X8.9Y-5.05
X8.9998Y-3.45
X9.0Y-2.65
X9.0Y-3.05
X9.0Y-3.85
X9.0Y-4.25
X9.0Y-4.65
X9.0Y-5.05
X9.3Y-2.65
X9.3Y-3.05
X9.3Y-3.45
X9.3Y-3.85
X9.3Y-4.25
X9.3Y-4.65
X9.3Y-5.05
X9.4Y-2.65
X9.4Y-3.05
X9.4Y-3.45
X9.4Y-3.85
X9.4Y-4.25
X9.4Y-4.65
X9.4Y-5.05
T6
X4.825Y-2.875
X4.825Y-2.975
X4.825Y-3.075
X5.18Y-2.0998
X5.18Y-2.1998
X5.18Y-2.2998
X5.18Y-2.3998
X5.18Y-2.4998
X5.18Y-2.5998
X5.18Y-2.6998
X5.18Y-2.7998
X5.18Y-2.8998
X5.18Y-2.9998
X5.18Y-3.0998
X5.18Y-3.1998
X5.78Y-2.0998
X5.78Y-2.1998
X5.78Y-2.2998
X5.78Y-2.3998
X5.78Y-2.4998
X5.78Y-2.5998
X5.78Y-2.6998
X5.78Y-2.7998
X5.78Y-2.8998
X5.78Y-2.9998
X5.78Y-3.0998
X5.78Y-3.1998
X6.1998Y-2.9
X6.1998Y-3.05
X6.2Y-2.28
X6.2Y-2.44
X6.2Y-2.6
X6.2Y-2.75
X6.2Y-3.2
X6.2998Y-2.9
X6.2998Y-3.05
X6.3Y-2.28
X6.3Y-2.44
X6.3Y-2.6
X6.3Y-2.75
X6.3Y-3.2
T7
X5.075Y-4.9
X5.075Y-5.075
X5.08Y-4.74
X5.475Y-4.9
X5.475Y-5.075
X5.48Y-4.74
X5.8Y-4.88
X5.8Y-5.12
X5.9Y-4.88
X5.9Y-5.12
X6.0Y-4.88
X6.0Y-5.12
T6
G00X4.5809Y-4.887
M15
G01X4.5809Y-4.9657
M16
G05
G00X4.6596Y-5.1114
M15
G01X4.7384Y-5.1114
M16
G05
G00X4.825Y-4.8772
M15
G01X4.825Y-4.9756
M16
G05
M30
